<svg width="1024" height="1024" viewBox="0 0 1024 1024" fill="none" xmlns="http://www.w3.org/2000/svg">
  <rect width="1024" height="1024" fill="#FFFFFF"/>

  <g transform="translate(86,44) scale(2)">
    <g transform="translate(40,40)">

      <path d="M 324,204 L 350,204 C 362,204 366,194 358,186 L 191,24 C 183,16 171,16 163,24 L -4,186 C -12,194 -8,204 4,204 L 28,204 L 28,340 C 28,354 38,364 52,364 L 290,364"
            fill="none"
            stroke="#1E2138"
            stroke-width="15"
            stroke-linecap="round"
            stroke-linejoin="round"/>

      <circle cx="146" cy="188" r="48" fill="#1E2138"/>

      <path d="M 76,336 C 62,336 56,310 70,290 C 86,268 114,254 146,254 C 166,254 184,260 198,270"
            fill="none"
            stroke="#1E2138"
            stroke-width="15"
            stroke-linecap="round"/>

      <path d="M 102,306 L 158,306 L 194,236 C 196,232 202,232 214,232 L 324,232 C 334,232 338,240 334,248 L 298,318 C 292,330 282,336 268,336 L 110,336 C 96,336 90,326 96,316 Z"
            fill="#D8DAF0"
            stroke="#1E2138"
            stroke-width="15"
            stroke-linecap="round"
            stroke-linejoin="round"/>

    </g>
  </g>
</svg>
